<svg viewBox="0 0 32 28" fill="none" id="hide-pw"><g id="hide-pw_0"><path id="hide-pw_1" d="M27.0122 7.93848L22.4987 12.452C22.7762 13.5637 22.7615 14.7283 22.4556 15.8325C22.1498 16.9368 21.5633 17.9431 20.7533 18.7535C19.9433 19.564 18.9372 20.151 17.8331 20.4575C16.7291 20.7639 15.5646 20.7794 14.4527 20.5025L11.3867 23.5685C12.8847 24.0119 14.4384 24.2377 16.0006 24.239C19.319 24.1565 22.5499 23.1566 25.3348 21.3501C28.1196 19.5436 30.3497 17.001 31.7777 14.0045C30.5958 11.6938 28.9775 9.63383 27.0122 7.93848Z" fill="#A6A6A6"></path><path id="hide-pw_2" d="M27.938 0.536011L23.0826 5.39001C20.8738 4.32413 18.4536 3.76843 16.001 3.76401C12.6822 3.8465 9.45115 4.84659 6.66605 6.65338C3.88094 8.46016 1.65075 11.003 0.222656 14C1.77315 17.0501 4.09573 19.6406 6.95911 21.5135L1.00864 27.464H4.06412L30.9921 0.536011H27.938ZM16.001 10.625C15.4267 10.6214 14.8611 10.7653 14.3583 11.043C13.8555 11.3207 13.4325 11.7229 13.1298 12.211C12.827 12.6991 12.6547 13.2567 12.6292 13.8305C12.6038 14.4043 12.7262 14.9751 12.9846 15.488L10.5846 17.888C9.75408 16.7623 9.30522 15.4005 9.30359 14.0015C9.30359 12.2256 10.0091 10.5225 11.2648 9.26673C12.5206 8.01098 14.2237 7.30551 15.9996 7.30551C17.398 7.30736 18.7592 7.75621 19.8845 8.58651L17.4846 10.9865C17.0247 10.7527 16.5169 10.629 16.001 10.625Z" fill="#A6A6A6"></path></g></svg>
