<svg id="open-pw" viewBox="0 0 96 96"><path d="M0 0 C0.93070312 0.49757813 1.86140625 0.99515625 2.8203125 1.5078125 C11.46690599 6.57325556 19.02206453 13.66049934 23 23 C23.28754371 30.61990835 18.72637734 36.93897707 13.8359375 42.4296875 C2.10824867 53.77536693 -10.37228716 56.51160897 -26 56.2734375 C-31.95137527 56.05015039 -36.74843585 54.83550908 -42 52 C-42.93070313 51.50242188 -43.86140625 51.00484375 -44.8203125 50.4921875 C-53.46690599 45.42674444 -61.02206453 38.33950066 -65 29 C-65.28754371 21.38009165 -60.72637734 15.06102293 -55.8359375 9.5703125 C-41.65114812 -4.15243162 -18.00357826 -9.72078187 0 0 Z M-34.375 11.3125 C-38.90144487 15.94671737 -40.78051093 20.52507252 -41 27 C-39.79504033 33.15390116 -37.46937357 37.63456535 -33 42 C-28.230017 45.0071632 -23.43097772 46.67179983 -17.765625 45.5625 C-11.29761234 43.65248284 -6.85600707 40.94401122 -3.1875 35.125 C-0.80627255 28.85861198 -0.64902404 24.35785243 -2.98828125 18.14453125 C-5.60372561 12.60059706 -9.20480077 9.20217571 -15 7 C-22.14997472 5.11132743 -28.55163936 6.84744184 -34.375 11.3125 Z " fill="white" transform="translate(69,22)"></path><path d="M0 0 C3.12578143 1.6720747 5.39281175 3.7856235 7 7 C7.51512617 11.09157355 7.94367269 15.23589546 5.953125 18.95703125 C3.55501226 21.85592636 1.60351712 23.79811835 -2.171875 24.2734375 C-9.98876369 24.58137554 -9.98876369 24.58137554 -13.5625 21.625 C-17.3057723 17.59378368 -17.39037018 14.90519941 -17.359375 9.55078125 C-16.78039966 5.44131496 -15.00085071 3.78650423 -12 1 C-8.27533151 -0.86233425 -4.05504687 -0.57130829 0 0 Z " fill="white" transform="translate(53,36)"></path></svg>